<svg width="48" height="48" viewBox="0 0 48 48" fill="none" xmlns="http://www.w3.org/2000/svg">
<g clip-path="url(#clip0_273_280)">
<rect width="48" height="48" rx="24" fill="#FC6636"/>
<path fill-rule="evenodd" clip-rule="evenodd" d="M22.6511 9.34342C22.6511 11.1324 21.7725 12.7162 20.4232 13.6868C19.0739 12.7162 18.1953 11.1324 18.1953 9.34342C18.1953 7.55442 19.0739 5.97062 20.4232 5C21.7725 5.97062 22.6511 7.55442 22.6511 9.34342ZM17.5366 16.7755H17.3815C17.3815 16.9295 17.3844 17.083 17.3901 17.2356L9.08759 43.3024C12.5501 39.9235 16.8484 37.4915 21.5332 36.2657C21.5518 36.1887 21.5714 36.1118 21.592 36.0349C22.6566 32.0618 26.0667 29.3435 29.9334 28.9708L29.9245 28.9563C36.4895 28.7674 41.7534 23.3862 41.7534 16.7755H22.4769H17.5366ZM9 43.5774L9.02161 43.5095C12.8246 41.5354 17.0121 40.2872 21.3622 39.8929C21.8973 43.5686 24.5555 46.754 28.371 47.7763C31.1133 48.5112 33.8967 47.9793 36.0999 46.5394L23.9321 59.5774L9 43.5774ZM16.6496 15.3472C16.9713 13.3764 16.3723 11.2846 14.8525 9.76481C13.3327 8.24504 11.2409 7.64599 9.27014 7.96765C8.94848 9.9384 9.54753 12.0302 11.0673 13.55C12.5871 15.0698 14.6789 15.6688 16.6496 15.3472ZM30.0519 21.057C30.0519 22.1484 29.1672 23.0331 28.0758 23.0331C26.9844 23.0331 26.0997 22.1484 26.0997 21.057C26.0997 19.9656 26.9844 19.0809 28.0758 19.0809C29.1672 19.0809 30.0519 19.9656 30.0519 21.057ZM27.4164 38.5602C26.361 38.2774 25.7347 37.1927 26.0175 36.1373C26.3003 35.082 27.385 34.4557 28.4404 34.7385C29.4957 35.0213 30.122 36.106 29.8392 37.1613C29.5564 38.2167 28.4717 38.8429 27.4164 38.5602Z" fill="white"/>
</g>
<defs>
<clipPath id="clip0_273_280">
<rect width="48" height="48" rx="24" fill="white"/>
</clipPath>
</defs>
</svg>
